<mxfile host="app.diagrams.net" modified="2022-10-31T15:48:10.867Z" agent="5.0 (Windows NT 10.0; Win64; x64) AppleWebKit/537.36 (KHTML, like Gecko) Chrome/87.0.4280.88 Safari/537.36" etag="KIesd4dzb6VsCJ-WAcKZ" version="20.4.1" type="github">
  <diagram id="WSA3ocsTXWFhmiPBerEU" name="第 1 页">
    <mxGraphModel dx="1422" dy="800" grid="1" gridSize="10" guides="1" tooltips="1" connect="1" arrows="1" fold="1" page="1" pageScale="1" pageWidth="827" pageHeight="1169" math="0" shadow="0">
      <root>
        <mxCell id="0" />
        <mxCell id="1" parent="0" />
        <mxCell id="cjFZimA0ZkYGRu65Da8S-11" style="edgeStyle=orthogonalEdgeStyle;rounded=0;orthogonalLoop=1;jettySize=auto;html=1;entryX=0;entryY=0.5;entryDx=0;entryDy=0;" edge="1" parent="1" source="cjFZimA0ZkYGRu65Da8S-1" target="cjFZimA0ZkYGRu65Da8S-2">
          <mxGeometry relative="1" as="geometry" />
        </mxCell>
        <mxCell id="cjFZimA0ZkYGRu65Da8S-1" value="Actor" style="shape=umlActor;verticalLabelPosition=bottom;verticalAlign=top;html=1;outlineConnect=0;" vertex="1" parent="1">
          <mxGeometry x="50" y="70" width="30" height="60" as="geometry" />
        </mxCell>
        <mxCell id="cjFZimA0ZkYGRu65Da8S-12" style="edgeStyle=orthogonalEdgeStyle;rounded=0;orthogonalLoop=1;jettySize=auto;html=1;curved=1;endArrow=block;endFill=0;" edge="1" parent="1" source="cjFZimA0ZkYGRu65Da8S-2" target="cjFZimA0ZkYGRu65Da8S-3">
          <mxGeometry relative="1" as="geometry" />
        </mxCell>
        <mxCell id="cjFZimA0ZkYGRu65Da8S-33" value="IO" style="edgeLabel;html=1;align=center;verticalAlign=middle;resizable=0;points=[];" vertex="1" connectable="0" parent="cjFZimA0ZkYGRu65Da8S-12">
          <mxGeometry x="-0.1098" relative="1" as="geometry">
            <mxPoint x="1" as="offset" />
          </mxGeometry>
        </mxCell>
        <mxCell id="cjFZimA0ZkYGRu65Da8S-2" value="SqlSessionFactoryBuilder" style="rounded=1;whiteSpace=wrap;html=1;fillColor=#1ba1e2;fontColor=#ffffff;strokeColor=#006EAF;" vertex="1" parent="1">
          <mxGeometry x="165" y="72.5" width="720" height="55" as="geometry" />
        </mxCell>
        <mxCell id="cjFZimA0ZkYGRu65Da8S-13" style="rounded=0;orthogonalLoop=1;jettySize=auto;html=1;endArrow=block;endFill=0;edgeStyle=orthogonalEdgeStyle;" edge="1" parent="1" source="cjFZimA0ZkYGRu65Da8S-3" target="cjFZimA0ZkYGRu65Da8S-5">
          <mxGeometry relative="1" as="geometry" />
        </mxCell>
        <mxCell id="cjFZimA0ZkYGRu65Da8S-16" style="edgeStyle=orthogonalEdgeStyle;rounded=0;orthogonalLoop=1;jettySize=auto;html=1;endArrow=block;endFill=0;" edge="1" parent="1" source="cjFZimA0ZkYGRu65Da8S-3" target="cjFZimA0ZkYGRu65Da8S-4">
          <mxGeometry relative="1" as="geometry" />
        </mxCell>
        <mxCell id="cjFZimA0ZkYGRu65Da8S-3" value="XMLConfigBuilder" style="rounded=1;whiteSpace=wrap;html=1;fillColor=#d5e8d4;strokeColor=#82b366;sketch=1;" vertex="1" parent="1">
          <mxGeometry x="160" y="180" width="180" height="60" as="geometry" />
        </mxCell>
        <mxCell id="cjFZimA0ZkYGRu65Da8S-18" style="edgeStyle=orthogonalEdgeStyle;rounded=0;orthogonalLoop=1;jettySize=auto;html=1;entryX=0;entryY=0.5;entryDx=0;entryDy=0;endArrow=block;endFill=0;" edge="1" parent="1" source="cjFZimA0ZkYGRu65Da8S-4" target="cjFZimA0ZkYGRu65Da8S-9">
          <mxGeometry relative="1" as="geometry" />
        </mxCell>
        <mxCell id="cjFZimA0ZkYGRu65Da8S-19" style="edgeStyle=orthogonalEdgeStyle;rounded=0;orthogonalLoop=1;jettySize=auto;html=1;exitX=1;exitY=0.5;exitDx=0;exitDy=0;entryX=0;entryY=0.5;entryDx=0;entryDy=0;endArrow=block;endFill=0;curved=1;" edge="1" parent="1" source="cjFZimA0ZkYGRu65Da8S-4" target="cjFZimA0ZkYGRu65Da8S-10">
          <mxGeometry relative="1" as="geometry" />
        </mxCell>
        <mxCell id="cjFZimA0ZkYGRu65Da8S-31" style="edgeStyle=orthogonalEdgeStyle;rounded=0;orthogonalLoop=1;jettySize=auto;html=1;exitX=0.5;exitY=1;exitDx=0;exitDy=0;endArrow=block;endFill=0;dashed=1;" edge="1" parent="1" source="cjFZimA0ZkYGRu65Da8S-4" target="cjFZimA0ZkYGRu65Da8S-22">
          <mxGeometry relative="1" as="geometry" />
        </mxCell>
        <mxCell id="cjFZimA0ZkYGRu65Da8S-4" value="parse" style="rounded=1;whiteSpace=wrap;html=1;fillColor=#d5e8d4;strokeColor=#82b366;sketch=1;" vertex="1" parent="1">
          <mxGeometry x="160" y="310" width="180" height="60" as="geometry" />
        </mxCell>
        <mxCell id="cjFZimA0ZkYGRu65Da8S-5" value="XMLConfigBuilder" style="rounded=1;whiteSpace=wrap;html=1;fillColor=#f8cecc;strokeColor=#b85450;gradientColor=none;shadow=0;glass=0;sketch=1;" vertex="1" parent="1">
          <mxGeometry x="665" y="175" width="220" height="70" as="geometry" />
        </mxCell>
        <mxCell id="cjFZimA0ZkYGRu65Da8S-6" value="" style="whiteSpace=wrap;html=1;aspect=fixed;shadow=0;glass=0;sketch=1;fillColor=#f8cecc;strokeColor=#b85450;rounded=0;" vertex="1" parent="1">
          <mxGeometry x="670" y="300" width="220" height="220" as="geometry" />
        </mxCell>
        <mxCell id="cjFZimA0ZkYGRu65Da8S-7" value="MappedStatement" style="rounded=1;whiteSpace=wrap;html=1;shadow=0;glass=0;sketch=1;gradientColor=none;" vertex="1" parent="1">
          <mxGeometry x="720" y="310" width="150" height="60" as="geometry" />
        </mxCell>
        <mxCell id="cjFZimA0ZkYGRu65Da8S-8" value="MapperRegistry" style="rounded=1;whiteSpace=wrap;html=1;shadow=0;glass=0;sketch=1;gradientColor=none;" vertex="1" parent="1">
          <mxGeometry x="720" y="440" width="150" height="60" as="geometry" />
        </mxCell>
        <mxCell id="cjFZimA0ZkYGRu65Da8S-20" style="edgeStyle=orthogonalEdgeStyle;rounded=0;orthogonalLoop=1;jettySize=auto;html=1;exitX=1;exitY=0.5;exitDx=0;exitDy=0;endArrow=block;endFill=0;" edge="1" parent="1" source="cjFZimA0ZkYGRu65Da8S-9" target="cjFZimA0ZkYGRu65Da8S-7">
          <mxGeometry relative="1" as="geometry" />
        </mxCell>
        <mxCell id="cjFZimA0ZkYGRu65Da8S-9" value="解析SQL" style="rounded=1;whiteSpace=wrap;html=1;fillColor=#d5e8d4;strokeColor=#82b366;sketch=1;" vertex="1" parent="1">
          <mxGeometry x="400" y="310" width="180" height="60" as="geometry" />
        </mxCell>
        <mxCell id="cjFZimA0ZkYGRu65Da8S-21" style="edgeStyle=orthogonalEdgeStyle;rounded=0;orthogonalLoop=1;jettySize=auto;html=1;exitX=1;exitY=0.5;exitDx=0;exitDy=0;entryX=0;entryY=0.5;entryDx=0;entryDy=0;endArrow=block;endFill=0;" edge="1" parent="1" source="cjFZimA0ZkYGRu65Da8S-10" target="cjFZimA0ZkYGRu65Da8S-8">
          <mxGeometry relative="1" as="geometry" />
        </mxCell>
        <mxCell id="cjFZimA0ZkYGRu65Da8S-10" value="注册Mapper" style="rounded=1;whiteSpace=wrap;html=1;fillColor=#d5e8d4;strokeColor=#82b366;sketch=1;" vertex="1" parent="1">
          <mxGeometry x="400" y="440" width="180" height="60" as="geometry" />
        </mxCell>
        <mxCell id="cjFZimA0ZkYGRu65Da8S-15" value="init" style="text;html=1;align=center;verticalAlign=middle;resizable=0;points=[];autosize=1;strokeColor=none;fillColor=none;" vertex="1" parent="1">
          <mxGeometry x="470" y="180" width="40" height="30" as="geometry" />
        </mxCell>
        <mxCell id="cjFZimA0ZkYGRu65Da8S-17" value="解析XML" style="text;html=1;align=center;verticalAlign=middle;resizable=0;points=[];autosize=1;strokeColor=none;fillColor=none;" vertex="1" parent="1">
          <mxGeometry x="235" y="255" width="70" height="30" as="geometry" />
        </mxCell>
        <mxCell id="cjFZimA0ZkYGRu65Da8S-25" style="edgeStyle=orthogonalEdgeStyle;rounded=0;orthogonalLoop=1;jettySize=auto;html=1;entryX=0;entryY=0.5;entryDx=0;entryDy=0;endArrow=block;endFill=0;" edge="1" parent="1" source="cjFZimA0ZkYGRu65Da8S-22" target="cjFZimA0ZkYGRu65Da8S-23">
          <mxGeometry relative="1" as="geometry" />
        </mxCell>
        <mxCell id="cjFZimA0ZkYGRu65Da8S-28" style="edgeStyle=orthogonalEdgeStyle;curved=1;rounded=0;orthogonalLoop=1;jettySize=auto;html=1;exitX=1;exitY=0.5;exitDx=0;exitDy=0;entryX=0;entryY=0.5;entryDx=0;entryDy=0;endArrow=block;endFill=0;" edge="1" parent="1" source="cjFZimA0ZkYGRu65Da8S-22" target="cjFZimA0ZkYGRu65Da8S-24">
          <mxGeometry relative="1" as="geometry" />
        </mxCell>
        <mxCell id="cjFZimA0ZkYGRu65Da8S-22" value="DefaultSqlSession" style="rounded=1;whiteSpace=wrap;html=1;sketch=1;" vertex="1" parent="1">
          <mxGeometry x="160" y="585" width="180" height="60" as="geometry" />
        </mxCell>
        <mxCell id="cjFZimA0ZkYGRu65Da8S-29" style="edgeStyle=orthogonalEdgeStyle;curved=1;rounded=0;orthogonalLoop=1;jettySize=auto;html=1;exitX=1;exitY=0.5;exitDx=0;exitDy=0;entryX=0.582;entryY=0.995;entryDx=0;entryDy=0;entryPerimeter=0;endArrow=block;endFill=0;" edge="1" parent="1" source="cjFZimA0ZkYGRu65Da8S-23" target="cjFZimA0ZkYGRu65Da8S-6">
          <mxGeometry relative="1" as="geometry" />
        </mxCell>
        <mxCell id="cjFZimA0ZkYGRu65Da8S-23" value="selectOne" style="rounded=1;whiteSpace=wrap;html=1;sketch=1;" vertex="1" parent="1">
          <mxGeometry x="460" y="585" width="180" height="60" as="geometry" />
        </mxCell>
        <mxCell id="cjFZimA0ZkYGRu65Da8S-30" style="edgeStyle=orthogonalEdgeStyle;rounded=0;orthogonalLoop=1;jettySize=auto;html=1;exitX=1;exitY=0.5;exitDx=0;exitDy=0;endArrow=block;endFill=0;" edge="1" parent="1" source="cjFZimA0ZkYGRu65Da8S-24">
          <mxGeometry relative="1" as="geometry">
            <mxPoint x="800" y="520" as="targetPoint" />
          </mxGeometry>
        </mxCell>
        <mxCell id="cjFZimA0ZkYGRu65Da8S-24" value="getMapper" style="rounded=1;whiteSpace=wrap;html=1;sketch=1;" vertex="1" parent="1">
          <mxGeometry x="460" y="720" width="180" height="60" as="geometry" />
        </mxCell>
        <mxCell id="cjFZimA0ZkYGRu65Da8S-32" value="opensession" style="text;html=1;align=center;verticalAlign=middle;resizable=0;points=[];autosize=1;strokeColor=none;fillColor=none;rotation=90;" vertex="1" parent="1">
          <mxGeometry x="235" y="455" width="90" height="30" as="geometry" />
        </mxCell>
        <mxCell id="cjFZimA0ZkYGRu65Da8S-36" style="edgeStyle=orthogonalEdgeStyle;rounded=0;orthogonalLoop=1;jettySize=auto;html=1;entryX=0;entryY=0.5;entryDx=0;entryDy=0;dashed=1;endArrow=block;endFill=0;" edge="1" parent="1" source="cjFZimA0ZkYGRu65Da8S-34" target="cjFZimA0ZkYGRu65Da8S-35">
          <mxGeometry relative="1" as="geometry" />
        </mxCell>
        <mxCell id="cjFZimA0ZkYGRu65Da8S-39" style="edgeStyle=orthogonalEdgeStyle;rounded=0;orthogonalLoop=1;jettySize=auto;html=1;entryX=0.5;entryY=0;entryDx=0;entryDy=0;dashed=1;endArrow=classicThin;endFill=1;" edge="1" parent="1" source="cjFZimA0ZkYGRu65Da8S-34" target="cjFZimA0ZkYGRu65Da8S-38">
          <mxGeometry relative="1" as="geometry" />
        </mxCell>
        <mxCell id="cjFZimA0ZkYGRu65Da8S-34" value="&lt;p style=&quot;margin:0px;margin-top:4px;text-align:center;&quot;&gt;&lt;i&gt;SqlSessionFactoryBuilder&lt;/i&gt;&lt;/p&gt;&lt;hr size=&quot;1&quot;&gt;&lt;p style=&quot;margin:0px;margin-left:4px;&quot;&gt;&lt;br&gt;&lt;/p&gt;&lt;hr size=&quot;1&quot;&gt;&lt;p style=&quot;margin:0px;margin-left:4px;&quot;&gt;+ build(Reader reader):SqlSessionFactory&lt;/p&gt;&lt;p style=&quot;margin:0px;margin-left:4px;&quot;&gt;+ build(Configuration config):SqlSessionFactory&lt;/p&gt;" style="verticalAlign=top;align=left;overflow=fill;fontSize=12;fontFamily=Helvetica;html=1;rounded=0;shadow=0;glass=0;sketch=0;gradientColor=none;" vertex="1" parent="1">
          <mxGeometry x="40" y="960" width="320" height="100" as="geometry" />
        </mxCell>
        <mxCell id="cjFZimA0ZkYGRu65Da8S-47" style="edgeStyle=orthogonalEdgeStyle;rounded=0;orthogonalLoop=1;jettySize=auto;html=1;exitX=0.5;exitY=1;exitDx=0;exitDy=0;entryX=0.5;entryY=0;entryDx=0;entryDy=0;dashed=1;endArrow=open;endFill=0;" edge="1" parent="1" source="cjFZimA0ZkYGRu65Da8S-35" target="cjFZimA0ZkYGRu65Da8S-41">
          <mxGeometry relative="1" as="geometry" />
        </mxCell>
        <mxCell id="cjFZimA0ZkYGRu65Da8S-35" value="&lt;p style=&quot;margin:0px;margin-top:4px;text-align:center;&quot;&gt;&lt;i&gt;XMLConfigBuilder&lt;/i&gt;&lt;/p&gt;&lt;hr size=&quot;1&quot;&gt;&lt;p style=&quot;margin:0px;margin-left:4px;&quot;&gt;-root: Element&lt;/p&gt;&lt;hr size=&quot;1&quot;&gt;&lt;p style=&quot;margin:0px;margin-left:4px;&quot;&gt;+ parse(): Configuration&lt;/p&gt;&lt;p style=&quot;margin:0px;margin-left:4px;&quot;&gt;-mapperElement(Element mappers)&lt;/p&gt;" style="verticalAlign=top;align=left;overflow=fill;fontSize=12;fontFamily=Helvetica;html=1;rounded=0;shadow=0;glass=0;sketch=0;gradientColor=none;" vertex="1" parent="1">
          <mxGeometry x="520" y="960" width="320" height="100" as="geometry" />
        </mxCell>
        <mxCell id="cjFZimA0ZkYGRu65Da8S-37" value="依赖" style="text;html=1;align=center;verticalAlign=middle;resizable=0;points=[];autosize=1;strokeColor=none;fillColor=none;" vertex="1" parent="1">
          <mxGeometry x="395" y="985" width="50" height="30" as="geometry" />
        </mxCell>
        <mxCell id="cjFZimA0ZkYGRu65Da8S-43" style="edgeStyle=orthogonalEdgeStyle;rounded=0;orthogonalLoop=1;jettySize=auto;html=1;entryX=0.5;entryY=0;entryDx=0;entryDy=0;dashed=1;endArrow=open;endFill=0;" edge="1" parent="1" source="cjFZimA0ZkYGRu65Da8S-38" target="cjFZimA0ZkYGRu65Da8S-42">
          <mxGeometry relative="1" as="geometry" />
        </mxCell>
        <mxCell id="cjFZimA0ZkYGRu65Da8S-38" value="&lt;p style=&quot;margin:0px;margin-top:4px;text-align:center;&quot;&gt;&lt;i&gt;DefaultSqlSessionFactory&lt;/i&gt;&lt;/p&gt;&lt;hr size=&quot;1&quot;&gt;&lt;p style=&quot;margin:0px;margin-left:4px;&quot;&gt;- configutation:Configuration&lt;/p&gt;&lt;hr size=&quot;1&quot;&gt;&lt;p style=&quot;margin:0px;margin-left:4px;&quot;&gt;+ openSession():SqlSession&lt;/p&gt;" style="verticalAlign=top;align=left;overflow=fill;fontSize=12;fontFamily=Helvetica;html=1;rounded=0;shadow=0;glass=0;sketch=0;gradientColor=none;" vertex="1" parent="1">
          <mxGeometry x="40" y="1140" width="320" height="100" as="geometry" />
        </mxCell>
        <mxCell id="cjFZimA0ZkYGRu65Da8S-40" value="创建" style="text;html=1;align=center;verticalAlign=middle;resizable=0;points=[];autosize=1;strokeColor=none;fillColor=none;" vertex="1" parent="1">
          <mxGeometry x="185" y="1085" width="50" height="30" as="geometry" />
        </mxCell>
        <mxCell id="cjFZimA0ZkYGRu65Da8S-41" value="&lt;p style=&quot;margin:0px;margin-top:4px;text-align:center;&quot;&gt;&lt;i&gt;XMLConfigBuilder&lt;/i&gt;&lt;/p&gt;&lt;hr size=&quot;1&quot;&gt;&lt;p style=&quot;margin:0px;margin-left:4px;&quot;&gt;#mapperRegistry: MapperRegistry&lt;/p&gt;&lt;p style=&quot;margin:0px;margin-left:4px;&quot;&gt;#mappedStatements: Map&amp;lt;String,MappedStatement&amp;gt;&lt;/p&gt;&lt;hr size=&quot;1&quot;&gt;&lt;p style=&quot;margin:0px;margin-left:4px;&quot;&gt;+ addMapper(Class&amp;lt;T&amp;gt; type)&lt;br&gt;&lt;/p&gt;&lt;p style=&quot;margin:0px;margin-left:4px;&quot;&gt;+ addMappedStatement(MappedStatement ms)&lt;/p&gt;" style="verticalAlign=top;align=left;overflow=fill;fontSize=12;fontFamily=Helvetica;html=1;rounded=0;shadow=0;glass=0;sketch=0;gradientColor=none;" vertex="1" parent="1">
          <mxGeometry x="520" y="1120" width="320" height="120" as="geometry" />
        </mxCell>
        <mxCell id="cjFZimA0ZkYGRu65Da8S-45" style="edgeStyle=orthogonalEdgeStyle;rounded=0;orthogonalLoop=1;jettySize=auto;html=1;entryX=0.5;entryY=1;entryDx=0;entryDy=0;dashed=1;endArrow=open;endFill=0;" edge="1" parent="1" source="cjFZimA0ZkYGRu65Da8S-42" target="cjFZimA0ZkYGRu65Da8S-41">
          <mxGeometry relative="1" as="geometry" />
        </mxCell>
        <mxCell id="cjFZimA0ZkYGRu65Da8S-42" value="&lt;p style=&quot;margin:0px;margin-top:4px;text-align:center;&quot;&gt;&lt;i&gt;DefaultSqlSession&lt;/i&gt;&lt;/p&gt;&lt;hr size=&quot;1&quot;&gt;&lt;p style=&quot;margin:0px;margin-left:4px;&quot;&gt;- configutation:Configuration&lt;/p&gt;&lt;hr size=&quot;1&quot;&gt;&lt;p style=&quot;margin:0px;margin-left:4px;&quot;&gt;+ selectOne(String statement):T&lt;/p&gt;&lt;p style=&quot;margin:0px;margin-left:4px;&quot;&gt;+ selectOne(String statement,Object parameter):T&lt;/p&gt;&lt;p style=&quot;margin:0px;margin-left:4px;&quot;&gt;+ getMapper(Class&amp;lt;T&amp;gt; type):T&lt;/p&gt;" style="verticalAlign=top;align=left;overflow=fill;fontSize=12;fontFamily=Helvetica;html=1;rounded=0;shadow=0;glass=0;sketch=0;gradientColor=none;" vertex="1" parent="1">
          <mxGeometry x="40" y="1320" width="320" height="100" as="geometry" />
        </mxCell>
        <mxCell id="cjFZimA0ZkYGRu65Da8S-44" value="依赖" style="text;html=1;align=center;verticalAlign=middle;resizable=0;points=[];autosize=1;strokeColor=none;fillColor=none;" vertex="1" parent="1">
          <mxGeometry x="185" y="1255" width="50" height="30" as="geometry" />
        </mxCell>
        <mxCell id="cjFZimA0ZkYGRu65Da8S-46" value="依赖" style="text;html=1;align=center;verticalAlign=middle;resizable=0;points=[];autosize=1;strokeColor=none;fillColor=none;" vertex="1" parent="1">
          <mxGeometry x="565" y="1345" width="50" height="30" as="geometry" />
        </mxCell>
        <mxCell id="cjFZimA0ZkYGRu65Da8S-48" value="依赖" style="text;html=1;align=center;verticalAlign=middle;resizable=0;points=[];autosize=1;strokeColor=none;fillColor=none;" vertex="1" parent="1">
          <mxGeometry x="685" y="1065" width="50" height="30" as="geometry" />
        </mxCell>
      </root>
    </mxGraphModel>
  </diagram>
</mxfile>
